<?xml version="1.0" standalone="no"?>
<!DOCTYPE svg PUBLIC "-//W3C//DTD SVG 20010904//EN"
 "http://www.w3.org/TR/2001/REC-SVG-20010904/DTD/svg10.dtd">
<svg version="1.0" xmlns="http://www.w3.org/2000/svg"
 width="523.000000pt" height="477.000000pt" viewBox="0 0 523.000000 477.000000"
 preserveAspectRatio="xMidYMid meet">

<g transform="translate(0.000000,477.000000) scale(0.100000,-0.100000)"
fill="#000000" stroke="none">
<path d="M2872 4278 l-9 -33 -59 3 c-49 3 -63 8 -81 29 -20 25 -25 26 -84 19
-34 -3 -70 -12 -78 -20 -25 -21 -135 -27 -154 -9 -23 23 -137 8 -144 -18 -4
-12 -20 -22 -47 -29 -22 -5 -76 -19 -118 -31 -66 -18 -82 -20 -108 -9 -73 30
-177 -13 -224 -92 -16 -28 -41 -51 -71 -67 -43 -23 -46 -23 -64 -7 -19 17 -27
15 -183 -34 -191 -61 -238 -83 -238 -109 0 -11 13 -56 29 -100 l28 -81 -59
-67 c-202 -233 -344 -531 -409 -863 -34 -167 -34 -472 -1 -645 63 -335 210
-633 443 -902 88 -100 103 -130 103 -198 1 -49 -2 -60 -17 -63 -20 -4 -56 66
-57 110 0 15 -10 39 -23 54 -20 23 -28 26 -59 20 -24 -4 -47 -19 -67 -42 -27
-30 -31 -42 -31 -95 0 -167 173 -294 318 -233 54 22 99 71 118 126 8 26 18 48
21 48 16 0 112 -67 113 -78 0 -7 -12 -54 -26 -104 -31 -106 -30 -107 57 -128
63 -15 72 -8 95 76 9 36 21 67 27 71 5 3 27 0 49 -8 l40 -13 -8 -65 c-14 -123
-17 -115 51 -122 33 -4 67 -3 76 1 8 5 21 34 28 64 7 31 15 56 19 56 4 0 23
-4 42 -9 19 -6 53 -14 76 -20 l40 -11 -10 -65 c-6 -45 -6 -69 1 -76 6 -6 37
-13 70 -16 l60 -5 17 61 17 62 37 -3 c36 -3 38 -5 58 -63 23 -68 28 -70 130
-40 l55 16 -3 47 -3 47 44 0 44 0 20 -68 21 -69 65 7 c36 4 70 9 75 12 5 3 6
39 2 79 -7 92 -3 93 122 24 50 -28 98 -50 106 -50 9 0 27 24 43 56 l27 55 -29
23 -29 23 55 18 c30 10 58 21 63 26 18 16 24 9 52 -61 15 -39 32 -70 38 -71
77 -8 294 48 337 87 15 14 15 20 0 77 -16 64 -28 82 -46 68 -13 -12 -156 -51
-182 -51 -12 0 -23 6 -26 14 -4 10 20 27 79 57 47 24 89 48 92 54 4 5 42 39
86 73 75 62 80 64 121 57 51 -7 108 -43 113 -69 3 -16 0 -18 -25 -11 -49 13
-99 10 -128 -9 -24 -16 -27 -23 -22 -53 8 -44 39 -80 92 -104 137 -63 266 52
237 212 -16 87 -46 125 -141 179 -11 6 0 26 49 87 189 234 312 497 382 818 18
86 22 132 22 330 0 214 -2 239 -27 355 -48 219 -126 421 -225 583 -23 37 -42
72 -42 78 0 9 5 19 55 99 59 96 85 142 85 153 0 13 -108 77 -129 77 -6 0 -32
-32 -58 -72 l-48 -71 -3 81 c-2 46 2 91 8 102 6 11 8 24 5 29 -3 5 -42 23 -86
40 -92 35 -97 34 -130 -31 -11 -21 -23 -38 -27 -38 -4 0 -23 13 -42 28 l-33
29 12 72 c8 50 8 77 1 86 -11 13 -153 59 -250 79 -62 13 -66 13 -83 -7 -18
-21 -19 -21 -65 -2 -26 10 -94 35 -152 55 l-105 37 -3 44 c-4 59 -20 69 -114
69 l-77 0 -9 -32z m148 -35 c-1 -10 -11 -101 -24 -203 -12 -102 -21 -190 -19
-196 4 -11 201 -94 223 -94 7 0 9 -7 5 -17 -3 -10 -9 -30 -12 -45 -3 -16 -7
-28 -10 -28 -2 0 -29 11 -61 24 -31 13 -97 38 -147 56 -49 18 -93 36 -96 39
-4 3 -1 60 7 126 7 66 16 167 19 225 4 58 8 111 10 118 3 7 23 12 55 12 41 0
50 -3 50 -17z m-316 -229 c4 -130 6 -238 4 -239 -2 -2 -19 -6 -40 -10 l-36 -7
-19 84 -19 83 -69 -2 c-92 -3 -96 -9 -84 -106 5 -43 7 -82 4 -87 -4 -6 -17
-10 -30 -10 -21 0 -24 6 -35 73 -10 64 -47 272 -69 384 -10 49 -7 53 30 53 25
0 29 -5 49 -72 11 -40 25 -84 29 -98 7 -23 12 -25 85 -28 106 -4 107 -3 99
119 l-6 99 50 0 50 0 7 -236z m-144 117 l0 -48 -41 -7 c-23 -4 -44 -4 -48 -1
-10 11 -30 88 -25 97 3 4 30 8 60 8 l54 0 0 -49z m291 30 c4 -3 -2 -93 -13
-199 -11 -106 -17 -199 -14 -207 6 -17 0 -14 196 -91 80 -31 158 -57 175 -58
27 -1 30 2 41 49 7 28 13 64 13 82 1 37 -21 53 -141 103 -54 22 -78 37 -78 48
1 33 28 224 33 228 6 7 164 -46 240 -80 46 -20 57 -30 54 -43 -3 -10 -22 -79
-42 -153 -20 -74 -43 -156 -50 -182 -14 -47 -13 -48 13 -66 36 -25 247 -122
265 -122 19 0 60 96 53 125 -4 14 -27 33 -65 54 -66 35 -76 45 -67 67 5 12 17
9 67 -16 34 -17 67 -29 74 -26 7 2 20 35 30 73 10 37 20 70 21 72 6 8 93 -64
94 -77 0 -7 -31 -70 -68 -140 -73 -136 -97 -192 -85 -202 91 -73 106 -76 147
-27 20 23 47 56 61 72 l25 30 -1 -107 c-1 -58 2 -111 6 -117 9 -16 81 -51 104
-51 14 0 35 25 72 85 28 47 55 85 60 85 4 0 29 -38 55 -86 l46 -85 -40 -57
c-21 -31 -45 -74 -53 -95 -12 -33 -11 -41 4 -67 81 -137 75 -297 -19 -512 -18
-42 -40 -102 -49 -133 -9 -30 -21 -55 -27 -55 -6 0 -41 20 -77 43 -36 24 -84
50 -106 57 -50 17 -159 17 -248 0 l-68 -12 -47 47 c-26 27 -71 59 -101 73 -48
22 -68 25 -207 27 -178 3 -178 3 -276 117 -92 108 -90 102 -41 96 63 -9 101 4
207 67 116 69 155 81 299 96 137 13 171 23 198 57 17 22 20 37 17 83 -7 92
-54 137 -195 183 -37 12 -72 36 -125 85 -223 207 -279 245 -380 255 -32 3 -83
9 -113 12 l-55 5 -51 75 c-35 52 -56 74 -67 72 -9 -3 -16 -10 -14 -18 2 -7 -2
-27 -8 -43 -6 -19 -7 -33 -1 -36 18 -12 16 -35 -3 -36 -12 0 -24 -14 -35 -45
-18 -47 -16 -46 -85 -33 -29 6 -29 6 -22 -33 11 -57 9 -75 -12 -103 -14 -19
-31 -27 -63 -31 l-44 -5 3 -59 c2 -57 1 -61 -34 -92 -31 -29 -35 -38 -29 -61
40 -161 30 -289 -36 -428 -42 -89 -58 -96 -202 -93 -110 3 -116 2 -178 -29
-90 -44 -101 -45 -195 -17 -46 13 -95 24 -108 24 -33 0 -86 -20 -203 -78
l-101 -50 -47 131 c-59 164 -67 243 -36 364 32 123 29 174 -14 239 -19 29 -35
57 -35 63 0 18 88 159 147 236 79 105 93 119 102 109 5 -5 35 -80 66 -166 32
-86 64 -159 71 -162 12 -5 132 26 154 39 15 9 13 29 -16 122 -14 46 -23 90
-20 98 2 7 31 22 63 31 32 10 63 22 70 26 15 12 -26 137 -50 152 -11 7 -36 5
-87 -8 -39 -10 -72 -17 -75 -15 -2 2 -6 16 -10 30 -6 26 -3 28 80 58 47 17 90
31 94 31 18 0 40 37 34 58 -6 23 11 52 31 52 7 0 16 -31 23 -76 23 -158 122
-296 237 -329 52 -15 60 -15 106 0 63 21 115 79 137 154 32 110 2 274 -67 370
-17 22 -30 44 -30 49 0 8 116 42 142 42 11 0 23 -49 47 -187 18 -104 39 -213
45 -243 12 -54 12 -55 46 -54 19 1 52 8 73 17 l38 17 -7 57 c-15 111 -14 118
27 121 37 3 37 3 49 -50 6 -29 16 -68 22 -87 l10 -34 71 6 c39 3 76 12 83 19
10 10 9 52 -2 203 -19 273 -24 245 39 238 28 -3 55 -8 58 -12z m-840 -50 c75
-48 119 -111 144 -206 39 -151 -6 -287 -106 -316 -143 -43 -295 162 -276 371
13 152 126 223 238 151z m1562 -75 l118 -37 -6 -32 c-4 -18 -8 -33 -9 -34 -3
-4 -127 23 -148 32 -22 9 -36 -19 -39 -79 -3 -55 3 -61 72 -70 27 -4 49 -10
49 -15 0 -8 -21 -73 -25 -79 -1 -1 -23 7 -49 18 -71 30 -89 27 -115 -20 -27
-49 -25 -53 63 -100 67 -36 74 -46 56 -81 -10 -18 -17 -16 -120 36 -61 30
-110 59 -110 64 0 4 4 21 9 37 5 16 26 90 46 164 64 237 66 242 78 237 7 -2
65 -21 130 -41z m-1964 -107 c7 -23 11 -43 8 -45 -2 -2 -50 -21 -108 -42 -68
-26 -105 -45 -107 -55 -2 -10 8 -42 23 -72 29 -63 45 -67 129 -39 52 18 58 15
74 -32 l10 -31 -69 -31 c-38 -17 -69 -37 -69 -44 0 -8 13 -54 30 -103 16 -49
29 -89 27 -90 -17 -10 -91 -24 -97 -18 -9 10 -191 502 -194 522 0 7 6 17 14
22 20 11 281 96 301 98 10 1 20 -13 28 -40z m2323 -86 c24 -9 44 -17 44 -17 1
-1 -2 -66 -6 -146 -4 -80 -5 -151 -2 -157 10 -30 37 -7 99 90 37 56 68 104 69
106 5 6 64 -21 64 -30 0 -5 -35 -62 -77 -128 -43 -66 -100 -156 -128 -201 -73
-119 -67 -113 -96 -101 l-26 9 5 131 c5 131 -1 161 -32 161 -10 0 -95 -107
-125 -159 -7 -11 -14 -10 -40 5 -17 10 -31 22 -31 27 0 5 37 77 83 160 45 84
95 178 112 210 16 31 33 57 37 57 4 0 27 -7 50 -17z m-1352 -187 c0 -8 -7 -17
-16 -20 -23 -9 -24 -8 -24 14 0 13 7 20 20 20 11 0 20 -6 20 -14z m38 -94 c40
-40 33 -38 232 -68 54 -9 113 -49 223 -152 137 -127 190 -168 234 -182 94 -30
132 -52 147 -85 17 -34 22 -95 9 -95 -35 0 -314 -42 -342 -51 -20 -7 -71 -34
-114 -62 -134 -85 -152 -87 -335 -31 -105 32 -207 38 -207 12 0 -9 -4 -20 -8
-24 -15 -16 -5 -21 47 -27 95 -10 166 -60 299 -211 39 -45 90 -94 114 -110 43
-29 46 -29 202 -31 183 -3 206 -10 279 -87 26 -27 59 -56 75 -64 32 -17 32
-26 11 -112 -20 -78 -9 -99 30 -57 31 34 50 97 43 147 -5 34 -3 37 24 43 16 4
64 7 107 8 82 1 116 -11 207 -73 60 -41 133 -70 175 -70 49 0 55 9 25 40 -24
25 -25 30 -15 78 5 28 25 86 45 128 59 126 87 235 88 344 0 52 -4 113 -9 135
-9 33 -7 47 8 78 10 21 23 35 28 32 6 -4 10 -88 10 -203 0 -153 5 -227 22
-332 30 -191 33 -275 12 -412 l-18 -118 -31 0 c-16 0 -111 -20 -210 -45 -182
-46 -244 -52 -325 -35 -64 14 -169 60 -207 89 -26 20 -29 27 -20 42 9 14 9 21
0 30 -9 9 -23 7 -60 -8 -26 -12 -72 -26 -101 -32 -76 -16 -230 -14 -288 4 -27
8 -61 15 -76 15 -23 0 -28 -4 -28 -24 0 -16 7 -27 20 -31 19 -6 16 -11 -27
-67 -55 -70 -81 -90 -154 -118 -30 -12 -74 -38 -99 -59 -25 -20 -49 -40 -55
-43 -6 -4 -9 31 -7 100 2 68 -2 142 -13 202 -29 169 -29 168 4 296 28 114 30
127 21 208 -10 86 -34 156 -56 163 -17 6 -24 -31 -24 -124 0 -67 -5 -95 -30
-156 -53 -132 -55 -154 -30 -317 25 -168 37 -369 23 -393 -7 -15 -24 -4 -113
71 -106 89 -141 134 -161 207 -14 52 -71 138 -110 166 -40 28 -82 27 -152 -6
-69 -31 -133 -32 -206 -4 -30 11 -77 24 -104 30 -47 8 -57 6 -131 -25 -45 -19
-109 -39 -144 -45 -79 -13 -103 -4 -276 93 -72 41 -152 80 -178 86 -46 12 -47
13 -54 59 -4 25 -2 120 4 211 9 145 15 179 47 280 27 84 39 143 44 218 4 56
12 107 18 113 14 14 63 -45 63 -74 0 -12 -7 -49 -15 -82 -30 -125 -17 -231 49
-410 56 -149 53 -145 101 -145 29 0 56 9 91 32 71 45 144 68 217 68 65 0 176
-17 190 -29 4 -4 -1 -25 -12 -47 -14 -28 -16 -43 -9 -52 14 -16 28 -4 79 64
66 90 128 116 250 104 108 -10 155 6 217 76 45 51 53 67 82 172 32 115 33 119
22 212 -7 52 -14 106 -17 120 -4 20 1 29 27 45 30 19 33 25 31 68 -1 42 1 48
23 53 29 7 81 65 90 100 4 13 20 32 36 40 33 17 81 109 81 156 0 15 2 28 4 28
2 0 20 -17 41 -38z m-1638 -1443 c209 -125 275 -145 400 -124 41 7 96 18 122
26 43 12 49 11 69 -7 12 -10 37 -41 54 -69 41 -62 79 -98 130 -122 44 -20 95
-87 165 -218 23 -44 50 -91 60 -105 61 -87 104 -210 112 -315 l3 -50 -30 4
c-16 2 -43 4 -60 5 l-30 1 -17 -95 c-9 -52 -17 -96 -17 -98 -1 -3 -85 10 -89
13 -2 2 10 47 27 100 17 54 28 102 25 107 -10 16 -87 48 -115 48 -25 0 -28 -5
-48 -82 -47 -179 -51 -190 -67 -184 -8 3 -42 24 -75 47 -50 34 -66 52 -90 102
-31 66 -36 106 -17 125 22 22 28 13 28 -42 0 -48 3 -57 31 -80 38 -32 50 -32
88 0 64 54 69 217 7 272 -34 30 -113 55 -157 49 -64 -8 -131 -49 -164 -100
-16 -25 -33 -46 -37 -46 -3 -1 -28 27 -55 62 -166 212 -270 419 -333 669 -33
129 -36 158 -17 158 6 0 50 -23 97 -51z m782 -116 c50 -15 50 -15 62 -90 5
-27 2 -33 -13 -33 -32 0 -84 44 -130 108 l-43 63 38 -17 c22 -9 60 -23 86 -31z
m307 1 c12 -19 26 -55 32 -80 6 -24 15 -47 20 -50 5 -3 9 -12 9 -20 0 -8 -4
-13 -8 -10 -5 3 -53 9 -107 15 -54 5 -102 14 -107 19 -5 5 -15 32 -22 60 l-14
50 42 7 c22 3 57 15 76 25 48 26 55 25 79 -16z m1316 -92 c-22 -43 -84 -111
-117 -128 l-31 -16 7 33 c7 35 75 114 111 129 38 16 44 12 30 -18z m-166 -28
c-8 -9 -25 -39 -39 -68 -14 -28 -31 -51 -37 -50 -7 1 -51 2 -98 3 l-86 1 15
28 c8 15 30 44 50 65 l37 37 86 0 c78 0 84 -1 72 -16z m311 -24 c57 -36 182
-70 261 -70 37 0 130 18 255 50 109 28 200 48 202 45 16 -15 -82 -234 -161
-361 -73 -118 -76 -121 -127 -100 -50 20 -129 21 -174 2 -49 -20 -102 -80
-114 -129 -13 -50 -1 -118 28 -155 11 -13 20 -30 20 -36 -1 -13 -93 -86 -109
-86 -6 0 -11 6 -11 14 0 24 -15 26 -64 10 -37 -13 -50 -14 -61 -4 -23 19 -19
27 30 56 25 14 45 30 45 34 0 10 -69 130 -74 130 -12 0 -147 -55 -199 -81 -76
-38 -107 -66 -100 -88 3 -9 25 -69 50 -133 24 -65 44 -121 43 -125 -2 -9 -70
-37 -137 -58 l-42 -13 -26 56 -25 55 38 46 c73 87 74 101 7 160 -38 33 -72 40
-81 16 -12 -30 -22 -14 -17 28 12 105 113 349 196 472 57 85 76 104 118 115
37 10 71 43 138 134 18 25 36 46 39 46 3 0 26 -13 52 -30z m-1309 -128 c41
-37 99 -83 129 -101 30 -19 59 -40 63 -48 5 -8 22 -30 39 -49 l31 -35 1 -152
c1 -145 2 -154 26 -187 l24 -34 12 44 c22 85 34 166 34 224 0 144 57 223 190
264 41 13 82 30 91 38 14 13 35 14 139 6 67 -6 124 -12 126 -15 9 -8 -29 -88
-92 -194 -100 -169 -128 -246 -140 -383 l-7 -72 -36 7 c-20 3 -67 7 -106 9
-153 6 -472 28 -500 35 -29 7 -31 10 -47 102 -9 52 -23 112 -32 134 -28 76
-77 189 -85 199 -8 10 -18 27 -80 136 -14 25 -36 60 -48 79 -13 19 -23 38 -23
42 0 5 44 10 98 12 53 1 102 4 108 5 7 1 45 -29 85 -66z m1737 -332 c52 -32
40 -54 -33 -60 -71 -6 -100 -20 -120 -60 -20 -39 -19 -54 8 -85 18 -20 34 -26
82 -30 66 -6 98 -24 132 -74 72 -106 10 -262 -98 -248 -41 5 -119 53 -119 73
0 24 39 37 70 24 64 -27 129 25 100 80 -11 20 -93 63 -170 88 -138 46 -150
221 -18 286 63 32 121 34 166 6z m-2397 -30 c62 -17 92 -94 70 -177 -24 -88
-66 -78 -57 14 3 40 1 55 -12 66 -27 23 -46 26 -79 12 -42 -18 -63 -81 -44
-128 58 -141 64 -198 28 -268 -27 -51 -89 -91 -142 -91 -50 0 -121 46 -156
100 -53 83 -34 190 33 180 17 -2 24 -10 26 -33 6 -73 15 -96 45 -125 100 -95
179 62 100 200 -40 72 -48 111 -30 147 21 38 65 79 107 97 42 18 63 19 111 6z
m1924 -191 c9 -17 15 -32 13 -33 -2 -2 -34 -20 -73 -40 -38 -21 -74 -41 -78
-46 -12 -11 32 -110 49 -110 7 0 48 14 90 31 83 32 97 29 92 -20 -2 -18 -19
-30 -83 -59 -44 -20 -81 -36 -83 -37 -1 -1 6 -23 15 -48 17 -47 17 -47 65 -47
26 0 76 11 111 24 l64 24 11 -36 c6 -20 8 -40 4 -43 -14 -14 -188 -67 -238
-74 l-51 -6 -20 48 c-12 26 -33 80 -48 118 -15 39 -45 112 -67 162 -28 66 -36
98 -30 109 5 9 47 32 92 51 46 19 93 41 104 49 30 21 44 17 61 -17z m-1659
-14 c30 -12 35 -19 30 -37 -3 -13 -13 -58 -23 -101 -14 -68 -15 -80 -2 -87 21
-14 119 -24 129 -14 5 5 15 46 23 92 8 45 17 85 20 88 3 3 28 -2 56 -11 44
-14 50 -20 46 -38 -4 -20 -29 -133 -80 -370 -9 -42 -20 -79 -24 -82 -5 -2 -25
-2 -45 2 -38 6 -38 6 -32 47 18 134 19 143 2 149 -9 4 -45 9 -79 13 l-63 6
-23 -77 -22 -76 -32 6 c-18 4 -36 11 -41 15 -12 12 105 490 120 490 3 0 21 -7
40 -15z m1238 -117 l34 -22 -21 -31 c-12 -16 -43 -57 -70 -90 -27 -33 -55 -68
-64 -79 -9 -11 -11 -22 -5 -28 5 -5 61 -39 124 -77 l116 -67 -14 -33 -13 -32
-126 65 c-130 68 -171 80 -161 49 12 -40 36 -166 32 -170 -2 -3 -22 -7 -44
-10 -46 -6 -36 -26 -87 177 -14 58 -37 142 -51 187 -14 46 -23 87 -20 92 6 10
96 34 102 28 3 -2 13 -34 23 -71 10 -37 22 -70 26 -74 8 -8 60 49 133 145 26
34 48 63 50 63 1 0 18 -10 36 -22z m-573 -93 c11 -27 42 -126 71 -220 28 -93
53 -175 55 -181 2 -6 -7 -14 -20 -18 -14 -3 -32 -9 -41 -12 -12 -4 -21 5 -35
37 -32 73 -40 79 -104 80 -67 2 -78 -6 -96 -68 -11 -40 -14 -43 -46 -43 -34 0
-34 1 -28 33 58 303 83 410 99 428 14 16 28 19 72 17 l54 -3 19 -50z"/>
<path d="M1920 4063 c-54 -21 -83 -78 -82 -164 1 -159 120 -287 218 -234 123
66 52 377 -92 399 -16 3 -36 3 -44 -1z m66 -62 c49 -30 79 -102 79 -188 0 -61
-3 -76 -22 -94 -74 -74 -188 116 -151 252 6 21 35 45 58 48 3 1 19 -8 36 -18z"/>
<path d="M2791 3356 c-10 -12 -6 -18 31 -37 24 -12 68 -39 98 -60 30 -21 64
-39 75 -41 18 -3 20 2 18 51 -1 67 -13 77 -96 86 -34 3 -74 8 -88 11 -16 3
-31 -1 -38 -10z"/>
<path d="M2238 2483 c-16 -19 -38 -136 -38 -200 0 -44 77 -221 103 -237 12 -8
21 -7 33 6 19 19 12 48 -39 157 l-29 64 12 91 c10 71 10 97 1 114 -14 27 -23
28 -43 5z"/>
<path d="M2778 2408 c-1 -7 -3 -65 -4 -128 -2 -63 -5 -151 -6 -195 -3 -68 -1
-80 14 -83 22 -4 34 20 54 114 23 109 22 198 -4 257 -20 44 -50 64 -54 35z"/>
<path d="M1365 2343 c-113 -27 -129 -43 -69 -73 35 -17 262 -27 314 -13 41 11
45 32 10 49 -117 58 -148 62 -255 37z"/>
<path d="M3564 2165 c-8 -19 11 -42 50 -63 36 -18 286 -32 286 -15 0 31 -75
63 -148 63 -32 0 -84 7 -115 15 -71 18 -66 18 -73 0z"/>
<path d="M2397 830 c-35 -83 -32 -94 22 -84 36 8 38 22 12 79 l-19 40 -15 -35z"/>
</g>
</svg>
